PathFileType	4	(X/Y/Z)	Run_500 01
DataRate	CameraRate	NumFrames	NumMarkers	Units	OrigDataRate	OrigDataStartFrame	OrigNumFrames
120	120	6	41	mm	120	61	128
Frame#	Time	RASI			LPSI			RPSI			RTH3			LTH1			LTH2			LTH3			RTB1			RTB2			RTB3			LTB1			LTB2			LTB3			RCAL			RTOE			RMT5			LCAL			LTOE			LMT5			LACR			RACR			CLAV			C7			RUA1			RUA2			RUA3			RLEL			LUA1			LUA2			LUA3			LLEL			LMEL			RFAsuperior			RFAradius			RFAulna			LFAsuperior			LFAradius			LFAulna			LASI			RTH1			RMEL			
		X1	Y1	Z1	X2	Y2	Z2	X3	Y3	Z3	X4	Y4	Z4	X5	Y5	Z5	X6	Y6	Z6	X7	Y7	Z7	X8	Y8	Z8	X9	Y9	Z9	X10	Y10	Z10	X11	Y11	Z11	X12	Y12	Z12	X13	Y13	Z13	X14	Y14	Z14	X15	Y15	Z15	X16	Y16	Z16	X17	Y17	Z17	X18	Y18	Z18	X19	Y19	Z19	X20	Y20	Z20	X21	Y21	Z21	X22	Y22	Z22	X23	Y23	Z23	X24	Y24	Z24	X25	Y25	Z25	X26	Y26	Z26	X27	Y27	Z27	X28	Y28	Z28	X29	Y29	Z29	X30	Y30	Z30	X31	Y31	Z31	X32	Y32	Z32	X33	Y33	Z33	X34	Y34	Z34	X35	Y35	Z35	X36	Y36	Z36	X37	Y37	Z37	X38	Y38	Z38	X39	Y39	Z39	X40	Y40	Z40	X41	Y41	Z41	

60	0.741667	1007.237283	936.626844	-210.393703	833.801772	998.383408	-359.245433	839.015529	985.94952	-262.447543	1162.166938	610.7839760000001	-168.215568	928.255842	771.885492	-494.903128	978.975328	660.406573	-469.801777	916.264281	551.2651049999999	-428.462294	1105.498216	477.192737	-239.50243	1043.032418	500.05455	-174.502965	986.8846160000001	468.132075	-240.917292	906.367538	332.30368	-325.962846	834.321188	280.220107	-391.1769	799.353962	201.831263	-309.950068	795.0979599999999	541.203113	-242.875814	832.961095	332.513695	-248.685984	823.606914	359.505604	-156.836291	628.345674	126.534536	-298.218542	826.321239	73.395433	-267.09684	811.409308	59.720271	-356.578406	1023.663342	1396.786382	-513.055914	941.853101	1410.819917	-124.550355	1034.704926	1400.339369	-286.107164	923.651912	1465.514369	-346.652803	841.487398	1308.689155	-81.151646	777.698156	1322.383816	-121.155059	771.884059	1253.983969	-59.26323	710.900592	1210.961732	-45.98859	976.116308	1263.290033	-574.355949	907.654939	1216.921952	-579.6851380000001	975.93134	1177.740746	-591.599329	937.336287	1104.803762	-622.504601	882.904871	1094.773592	-555.29059	739.563862	1085.253639	-27.608977	752.537878	967.304755	-63.094221	702.958972	965.962979	-11.842317	1051.804001	1075.094974	-565.753559	1114.739628	1086.314632	-456.197834	1139.063671	1041.600268	-504.666804	987.318996	962.614399	-438.579755	989.759692	790.450764	-150.468773	691.6262860000001	1192.215903	-123.808364	
61	0.75	1007.938253	944.514435	-209.713934	836.811659	1003.149362	-362.206637	839.503098	992.903263	-264.904094	1172.24489	626.045779	-172.621054	921.899176	776.045157	-493.666055	968.238392	662.71019	-468.431065	897.163055	555.836417	-427.915449	1126.877868	483.062791	-243.164913	1061.395002	500.278765	-177.090149	1006.686415	462.215465	-242.774826	877.499384	335.570848	-326.77716	803.524891	285.654183	-391.783596	767.569568	206.937488	-311.693321	808.9414379999999	512.968471	-242.271574	872.175086	310.549322	-249.465222	860.448333	335.795182	-157.090454	595.70942	135.133966	-300.561094	791.1059760000001	74.291929	-268.035103	775.499298	59.87197	-357.021885	1025.704164	1403.770048	-510.834491	936.388693	1417.975509	-124.706338	1032.320387	1407.286923	-283.888255	922.2848729999999	1471.191815	-346.530777	834.3797070000001	1317.663632	-82.580922	771.664341	1332.854643	-123.458242	763.674249	1263.75846	-62.088405	701.329376	1222.156772	-50.104858	981.730927	1269.218912	-572.391468	914.3184240000001	1221.713363	-579.5217249999999	983.278985	1183.679865	-589.115762	946.62487	1109.725724	-620.129762	890.72319	1099.175552	-554.066106	728.283733	1096.373165	-31.680249	740.784318	978.614456	-66.90920300000001	690.120075	977.304299	-17.050878	1060.464292	1084.998027	-559.958693	1120.12427	1100.381651	-449.238019	1147.384195	1055.779584	-496.033194	991.223924	965.860276	-438.717054	990.921321	798.87353	-150.469591	683.007388	1204.538824	-128.511039	
62	0.758333	1009.579427	953.409986	-209.052271	840.555305	1007.935116	-364.808327	840.23847	1000.087123	-267.337445	1180.478705	640.157408	-177.377944	918.1966179999999	781.024179	-492.372922	959.79273	665.9866050000001	-466.230206	878.766615	562.340519	-427.495562	1147.386316	488.111295	-246.923468	1079.273986	499.42607	-179.893115	1026.949131	455.33814	-244.759798	848.596749	341.611055	-328.204456	772.801297	293.902395	-392.979388	736.058638	214.607484	-313.789025	825.81256	483.296619	-242.217151	913.271243	290.241287	-251.189193	899.4009579999999	313.367569	-157.953547	563.687857	147.265519	-303.875217	754.59091	75.11084700000001	-268.949626	738.275604	60.064865	-357.489108	1027.645177	1411.543668	-508.48171	930.960247	1425.905867	-125.027172	1029.973215	1414.841848	-281.640692	920.865694	1477.374637	-346.408606	827.568315	1327.32133	-84.096214	766.170736	1344.190244	-126.011188	755.89175	1274.220561	-65.133915	692.366021	1233.860594	-54.455127	987.005005	1276.253932	-570.573121	920.6515889999999	1227.835433	-579.467535	990.120756	1190.726631	-586.636584	954.9314419999999	1116.046514	-617.87094	897.268914	1105.282164	-552.8559770000001	718.117602	1108.035291	-36.129379	730.639538	990.372123	-71.34921799999999	678.967767	988.922899	-22.785108	1067.759391	1095.821153	-554.471542	1124.124021	1114.716393	-442.694826	1154.080702	1070.447522	-487.969417	995.907438	969.602032	-439.300922	992.559667	808.027614	-149.683212	675.165262	1217.175967	-133.418582	
63	0.766667	1011.823828	962.968921	-208.300965	844.894186	1012.89092	-367.068466	841.509495	1007.334784	-269.745794	1187.005325	652.982297	-182.290378	917.3476889999999	785.949119	-491.108288	952.260428	669.682718	-463.59267	861.306255	570.554716	-427.601863	1166.668031	492.522308	-250.615083	1096.884775	497.422484	-182.873879	1048.335758	447.610661	-246.876307	819.839974	350.438441	-330.834745	742.292718	305.220408	-395.311215	705.365623	224.694991	-316.769611	845.925337	452.814621	-242.678847	955.833075	271.804589	-253.546162	940.1118729999999	292.565742	-159.462544	532.739778	162.475528	-308.141431	716.606083	75.671724	-269.907806	699.626499	60.142773	-358.086905	1029.578053	1419.887119	-506.064761	925.618831	1434.238676	-125.512856	1027.662641	1422.681283	-279.446775	919.520912	1483.952876	-346.272488	820.932924	1337.488252	-85.650434	761.009415	1355.919185	-128.80628	748.408123	1285.161143	-68.289339	683.92908	1245.776802	-58.935271	991.8956899999999	1284.133041	-568.868732	926.466688	1235.079072	-579.427375	996.3181970000001	1198.712832	-584.3380090000001	962.2702860000001	1123.48445	-615.839309	902.6586	1112.742615	-551.785124	709.0165950000001	1119.944317	-40.774438	722.004282	1002.188696	-76.27168399999999	669.471118	1000.538632	-28.756157	1073.78909	1107.247183	-549.38289	1126.837411	1128.99915	-436.579265	1159.281723	1085.25201	-480.512635	1001.189847	973.561286	-439.888135	995.3800649999999	817.912752	-148.192399	668.059312	1229.728387	-138.399784	
64	0.775	1014.360527	972.9216730000001	-207.354076	849.7622239999999	1018.079974	-369.119399	843.576566	1014.483281	-272.09132	1192.001537	664.449419	-187.166084	918.265345	790.429857	-489.92131	944.357814	673.97987	-461.02188	844.750212	580.374651	-428.582577	1184.486047	496.461199	-254.084151	1114.383587	494.309739	-185.901984	1070.956407	439.380941	-249.165963	791.569199	361.59711	-334.877999	712.2598410000001	319.346137	-399.039626	676.133045	236.594169	-321.204389	869.244563	422.111788	-243.443793	999.537065	255.363135	-256.376958	982.3331920000001	273.606222	-161.758195	503.821261	179.736201	-313.219144	677.810191	76.157979	-271.178113	660.016356	60.067215	-358.978261	1031.527065	1428.534767	-503.601332	920.415623	1442.619071	-126.171027	1025.377932	1430.516938	-277.339446	918.296294	1490.73967	-346.088109	814.430044	1347.960627	-87.238438	756.026241	1367.587775	-131.782288	741.163294	1296.335257	-71.43448100000001	675.966946	1257.62441	-63.404959	996.401267	1292.58067	-567.24478	931.658764	1243.240737	-579.379675	1001.807539	1207.409446	-582.347145	968.732444	1131.73926	-614.208454	907.154347	1121.127143	-551.037012	700.9509409999999	1131.827276	-45.462329	714.805546	1013.846309	-81.425236	661.559288	1011.905655	-34.7408	1078.718123	1118.964679	-544.773504	1128.407073	1143.01181	-430.889791	1163.14972	1099.891792	-473.61561	1006.905115	977.581106	-439.893628	999.721135	828.335506	-146.273131	661.605046	1241.945642	-143.344947	
65	0.7833329999999999	1017.024987	983.08796	-206.108641	855.018398	1023.432893	-371.014159	846.47444	1021.385722	-274.278976	1195.665812	674.499022	-191.88922	919.341453	794.744315	-488.904353	935.575014	679.2692060000001	-458.87739	828.907995	591.790023	-430.431019	1200.880982	499.923355	-257.34404	1131.871217	490.163101	-188.861417	1094.428653	431.026333	-251.707095	764.41133	374.480755	-340.060847	683.136969	335.661056	-404.06022	649.040203	249.523939	-327.451281	895.5621180000001	391.663604	-244.243355	1044.074979	241.090465	-259.805026	1025.881616	256.674239	-164.963426	478.217202	197.98408	-319.119192	639.658092	77.232518	-273.227172	620.454689	60.13605	-360.360152	1033.472912	1437.210216	-501.089496	915.390791	1450.737775	-127.007231	1023.124539	1438.0891	-275.311627	917.17044	1497.489802	-345.838989	808.086272	1358.46991	-88.904439	751.158172	1378.829513	-134.886419	734.165446	1307.476335	-74.482355	668.468436	1269.148992	-67.721729	1000.556764	1301.349841	-565.7137279999999	936.244204	1252.096352	-579.384242	1006.621207	1216.547823	-580.710672	974.435798	1140.518047	-613.153307	911.042951	1130.022506	-550.783381	693.894105	1143.443861	-50.067396	708.965541	1025.260363	-86.48901499999999	655.1327659999999	1022.827727	-40.55611	1082.714339	1130.688969	-540.6692849999999	1128.984495	1156.593579	-425.618306	1165.839841	1114.115121	-467.208423	1012.883516	981.581224	-438.949779	1005.465576	839.157344	-144.267181	655.660222	1253.672012	-148.137666	
